<svg xmlns="http://www.w3.org/2000/svg" viewBox="0 0 100 100" width="100" height="100"><polygon points="50.00,4.00 48.54,34.57 51.46,34.57" fill="#FAF7F0"></polygon><polygon points="62.25,20.44 54.92,35.30 56.92,36.13" fill="#FAF7F0"></polygon><polygon points="82.53,17.47 59.88,38.06 61.94,40.12" fill="#FAF7F0"></polygon><polygon points="79.56,37.75 63.87,43.08 64.70,45.08" fill="#FAF7F0"></polygon><polygon points="96.00,50.00 65.43,48.54 65.43,51.46" fill="#FAF7F0"></polygon><polygon points="79.56,62.25 64.70,54.92 63.87,56.92" fill="#FAF7F0"></polygon><polygon points="82.53,82.53 61.94,59.88 59.88,61.94" fill="#FAF7F0"></polygon><polygon points="62.25,79.56 56.92,63.87 54.92,64.70" fill="#FAF7F0"></polygon><polygon points="50.00,96.00 51.46,65.43 48.54,65.43" fill="#FAF7F0"></polygon><polygon points="37.75,79.56 45.08,64.70 43.08,63.87" fill="#FAF7F0"></polygon><polygon points="17.47,82.53 40.12,61.94 38.06,59.88" fill="#FAF7F0"></polygon><polygon points="20.44,62.25 36.13,56.92 35.30,54.92" fill="#FAF7F0"></polygon><polygon points="4.00,50.00 34.57,51.46 34.57,48.54" fill="#FAF7F0"></polygon><polygon points="20.44,37.75 35.30,45.08 36.13,43.08" fill="#FAF7F0"></polygon><polygon points="17.47,17.47 38.06,40.12 40.12,38.06" fill="#FAF7F0"></polygon><polygon points="37.75,20.44 43.08,36.13 45.08,35.30" fill="#FAF7F0"></polygon><circle cx="50" cy="50" r="10.5" fill="#FAF7F0"></circle></svg>