<svg xmlns="http://www.w3.org/2000/svg" viewBox="0 0 100 100" width="100" height="100"><line x1="50.00" y1="31.00" x2="50.00" y2="5.00" stroke="#C9952A" stroke-width="1.3" stroke-linecap="round"></line><line x1="54.38" y1="31.51" x2="58.30" y2="14.97" stroke="#C9952A" stroke-width="1.3" stroke-linecap="round"></line><line x1="58.53" y1="33.02" x2="70.20" y2="9.79" stroke="#C9952A" stroke-width="1.3" stroke-linecap="round"></line><line x1="62.21" y1="35.45" x2="73.14" y2="22.42" stroke="#C9952A" stroke-width="1.3" stroke-linecap="round"></line><line x1="65.24" y1="38.65" x2="86.10" y2="23.13" stroke="#C9952A" stroke-width="1.3" stroke-linecap="round"></line><line x1="67.45" y1="42.47" x2="83.06" y2="35.74" stroke="#C9952A" stroke-width="1.3" stroke-linecap="round"></line><line x1="68.71" y1="46.70" x2="94.32" y2="42.19" stroke="#C9952A" stroke-width="1.3" stroke-linecap="round"></line><line x1="68.97" y1="51.10" x2="85.94" y2="52.09" stroke="#C9952A" stroke-width="1.3" stroke-linecap="round"></line><line x1="68.20" y1="55.45" x2="93.11" y2="62.91" stroke="#C9952A" stroke-width="1.3" stroke-linecap="round"></line><line x1="66.45" y1="59.50" x2="81.18" y2="68.00" stroke="#C9952A" stroke-width="1.3" stroke-linecap="round"></line><line x1="63.82" y1="63.04" x2="82.73" y2="80.88" stroke="#C9952A" stroke-width="1.3" stroke-linecap="round"></line><line x1="60.44" y1="65.87" x2="69.78" y2="80.08" stroke="#C9952A" stroke-width="1.3" stroke-linecap="round"></line><line x1="56.50" y1="67.85" x2="65.39" y2="92.29" stroke="#C9952A" stroke-width="1.3" stroke-linecap="round"></line><line x1="52.21" y1="68.87" x2="54.18" y2="85.76" stroke="#C9952A" stroke-width="1.3" stroke-linecap="round"></line><line x1="47.79" y1="68.87" x2="44.78" y2="94.70" stroke="#C9952A" stroke-width="1.3" stroke-linecap="round"></line><line x1="43.50" y1="67.85" x2="37.69" y2="83.83" stroke="#C9952A" stroke-width="1.3" stroke-linecap="round"></line><line x1="39.56" y1="65.87" x2="25.27" y2="87.60" stroke="#C9952A" stroke-width="1.3" stroke-linecap="round"></line><line x1="36.18" y1="63.04" x2="23.81" y2="74.70" stroke="#C9952A" stroke-width="1.3" stroke-linecap="round"></line><line x1="33.55" y1="59.50" x2="11.03" y2="72.50" stroke="#C9952A" stroke-width="1.3" stroke-linecap="round"></line><line x1="31.80" y1="55.45" x2="15.51" y2="60.32" stroke="#C9952A" stroke-width="1.3" stroke-linecap="round"></line><line x1="31.03" y1="51.10" x2="5.08" y2="52.62" stroke="#C9952A" stroke-width="1.3" stroke-linecap="round"></line><line x1="31.29" y1="46.70" x2="14.55" y2="43.75" stroke="#C9952A" stroke-width="1.3" stroke-linecap="round"></line><line x1="32.55" y1="42.47" x2="8.68" y2="32.18" stroke="#C9952A" stroke-width="1.3" stroke-linecap="round"></line><line x1="34.76" y1="38.65" x2="21.12" y2="28.50" stroke="#C9952A" stroke-width="1.3" stroke-linecap="round"></line><line x1="37.79" y1="35.45" x2="21.07" y2="15.53" stroke="#C9952A" stroke-width="1.3" stroke-linecap="round"></line><line x1="41.47" y1="33.02" x2="33.84" y2="17.83" stroke="#C9952A" stroke-width="1.3" stroke-linecap="round"></line><line x1="45.62" y1="31.51" x2="39.62" y2="6.21" stroke="#C9952A" stroke-width="1.3" stroke-linecap="round"></line><circle cx="50" cy="50" r="2.4" fill="#C9952A"></circle></svg>